<mxfile host="app.diagrams.net" modified="2024-08-20T18:01:32.110Z" agent="Mozilla/5.0 (Windows NT 10.0; Win64; x64) AppleWebKit/537.36 (KHTML, like Gecko) Chrome/127.0.0.0 Safari/537.36" etag="2PjN3FSx2q3AQSCUZUKd" version="24.5.4" type="device">
  <diagram name="페이지-1" id="sPa28IYxmn-mB0dgauVG">
    <mxGraphModel dx="1123" dy="705" grid="1" gridSize="10" guides="1" tooltips="1" connect="1" arrows="1" fold="1" page="1" pageScale="1" pageWidth="1169" pageHeight="827" math="0" shadow="0">
      <root>
        <mxCell id="0" />
        <mxCell id="1" parent="0" />
        <mxCell id="JhGm3Lid9YmZxuNOlKfP-1" value="" style="endArrow=none;html=1;rounded=0;strokeWidth=8;" edge="1" parent="1">
          <mxGeometry width="50" height="50" relative="1" as="geometry">
            <mxPoint x="39" y="230" as="sourcePoint" />
            <mxPoint x="39" y="190" as="targetPoint" />
          </mxGeometry>
        </mxCell>
        <mxCell id="JhGm3Lid9YmZxuNOlKfP-2" value="" style="endArrow=none;html=1;rounded=0;strokeWidth=8;" edge="1" parent="1">
          <mxGeometry width="50" height="50" relative="1" as="geometry">
            <mxPoint x="1129" y="230" as="sourcePoint" />
            <mxPoint x="1129" y="190" as="targetPoint" />
          </mxGeometry>
        </mxCell>
        <mxCell id="JhGm3Lid9YmZxuNOlKfP-3" value="" style="endArrow=none;html=1;rounded=0;strokeWidth=8;exitX=0;exitY=0.5;exitDx=0;exitDy=0;" edge="1" parent="1" source="JhGm3Lid9YmZxuNOlKfP-4">
          <mxGeometry width="50" height="50" relative="1" as="geometry">
            <mxPoint x="239" y="210" as="sourcePoint" />
            <mxPoint x="39" y="210" as="targetPoint" />
          </mxGeometry>
        </mxCell>
        <mxCell id="JhGm3Lid9YmZxuNOlKfP-4" value="&lt;span style=&quot;font-size: 18px;&quot;&gt;&lt;b&gt;1 ~ 9&lt;/b&gt;&lt;/span&gt;" style="rounded=0;whiteSpace=wrap;html=1;fillColor=#d5e8d4;strokeColor=#82b366;" vertex="1" parent="1">
          <mxGeometry x="209" y="190" width="60" height="40" as="geometry" />
        </mxCell>
        <mxCell id="JhGm3Lid9YmZxuNOlKfP-5" value="" style="endArrow=none;html=1;rounded=0;strokeWidth=8;entryX=1;entryY=0.5;entryDx=0;entryDy=0;" edge="1" parent="1" target="JhGm3Lid9YmZxuNOlKfP-4">
          <mxGeometry width="50" height="50" relative="1" as="geometry">
            <mxPoint x="1129" y="210" as="sourcePoint" />
            <mxPoint x="-26" y="300" as="targetPoint" />
          </mxGeometry>
        </mxCell>
        <mxCell id="JhGm3Lid9YmZxuNOlKfP-14" value="" style="endArrow=none;html=1;rounded=0;exitX=0;exitY=0.5;exitDx=0;exitDy=0;strokeWidth=8;" edge="1" parent="1" source="JhGm3Lid9YmZxuNOlKfP-7">
          <mxGeometry width="50" height="50" relative="1" as="geometry">
            <mxPoint x="109" y="310" as="sourcePoint" />
            <mxPoint x="69" y="210" as="targetPoint" />
            <Array as="points">
              <mxPoint x="89" y="350" />
              <mxPoint x="79" y="340" />
              <mxPoint x="79" y="220" />
            </Array>
          </mxGeometry>
        </mxCell>
        <mxCell id="JhGm3Lid9YmZxuNOlKfP-15" value="" style="endArrow=none;html=1;rounded=0;strokeWidth=8;exitX=0;exitY=0.5;exitDx=0;exitDy=0;" edge="1" parent="1" source="JhGm3Lid9YmZxuNOlKfP-6">
          <mxGeometry width="50" height="50" relative="1" as="geometry">
            <mxPoint x="69" y="270" as="sourcePoint" />
            <mxPoint x="79" y="260" as="targetPoint" />
            <Array as="points">
              <mxPoint x="89" y="270" />
            </Array>
          </mxGeometry>
        </mxCell>
        <mxCell id="JhGm3Lid9YmZxuNOlKfP-6" value="&lt;b&gt;&lt;font style=&quot;font-size: 18px;&quot;&gt;+&lt;/font&gt;&lt;/b&gt;" style="rounded=0;whiteSpace=wrap;html=1;fillColor=#d5e8d4;strokeColor=#82b366;" vertex="1" parent="1">
          <mxGeometry x="99" y="250" width="40" height="40" as="geometry" />
        </mxCell>
        <mxCell id="JhGm3Lid9YmZxuNOlKfP-7" value="&lt;b&gt;&lt;font style=&quot;font-size: 18px;&quot;&gt;-&lt;/font&gt;&lt;/b&gt;" style="rounded=0;whiteSpace=wrap;html=1;fillColor=#d5e8d4;strokeColor=#82b366;" vertex="1" parent="1">
          <mxGeometry x="99" y="330" width="40" height="40" as="geometry" />
        </mxCell>
        <mxCell id="JhGm3Lid9YmZxuNOlKfP-17" value="" style="endArrow=none;html=1;rounded=0;exitX=1;exitY=0.5;exitDx=0;exitDy=0;strokeWidth=8;" edge="1" parent="1" source="JhGm3Lid9YmZxuNOlKfP-7">
          <mxGeometry width="50" height="50" relative="1" as="geometry">
            <mxPoint x="129" y="350" as="sourcePoint" />
            <mxPoint x="169" y="210" as="targetPoint" />
            <Array as="points">
              <mxPoint x="149" y="350" />
              <mxPoint x="159" y="340" />
              <mxPoint x="159" y="220" />
            </Array>
          </mxGeometry>
        </mxCell>
        <mxCell id="JhGm3Lid9YmZxuNOlKfP-18" value="" style="endArrow=none;html=1;rounded=0;exitX=1;exitY=0.5;exitDx=0;exitDy=0;strokeWidth=8;" edge="1" parent="1" source="JhGm3Lid9YmZxuNOlKfP-6">
          <mxGeometry width="50" height="50" relative="1" as="geometry">
            <mxPoint x="129" y="330" as="sourcePoint" />
            <mxPoint x="159" y="260" as="targetPoint" />
            <Array as="points">
              <mxPoint x="149" y="270" />
            </Array>
          </mxGeometry>
        </mxCell>
        <mxCell id="JhGm3Lid9YmZxuNOlKfP-19" value="&lt;b&gt;&lt;font style=&quot;font-size: 18px;&quot;&gt;0&lt;/font&gt;&lt;/b&gt;" style="rounded=0;whiteSpace=wrap;html=1;fillColor=#d5e8d4;strokeColor=#82b366;" vertex="1" parent="1">
          <mxGeometry x="219" y="330" width="40" height="40" as="geometry" />
        </mxCell>
        <mxCell id="JhGm3Lid9YmZxuNOlKfP-20" value="" style="endArrow=none;html=1;rounded=0;exitX=0;exitY=0.5;exitDx=0;exitDy=0;strokeWidth=8;" edge="1" parent="1" source="JhGm3Lid9YmZxuNOlKfP-19">
          <mxGeometry width="50" height="50" relative="1" as="geometry">
            <mxPoint x="119" y="360" as="sourcePoint" />
            <mxPoint x="180" y="210" as="targetPoint" />
            <Array as="points">
              <mxPoint x="200" y="350" />
              <mxPoint x="190" y="340" />
              <mxPoint x="190" y="220" />
            </Array>
          </mxGeometry>
        </mxCell>
        <mxCell id="JhGm3Lid9YmZxuNOlKfP-21" value="&lt;b&gt;&lt;font style=&quot;font-size: 18px;&quot;&gt;0 ~ 9&lt;/font&gt;&lt;/b&gt;" style="rounded=0;whiteSpace=wrap;html=1;fillColor=#d5e8d4;strokeColor=#82b366;" vertex="1" parent="1">
          <mxGeometry x="349" y="240" width="60" height="40" as="geometry" />
        </mxCell>
        <mxCell id="JhGm3Lid9YmZxuNOlKfP-22" value="" style="endArrow=none;html=1;rounded=0;exitX=0;exitY=0.5;exitDx=0;exitDy=0;strokeWidth=8;" edge="1" parent="1" source="JhGm3Lid9YmZxuNOlKfP-21">
          <mxGeometry width="50" height="50" relative="1" as="geometry">
            <mxPoint x="319" y="300" as="sourcePoint" />
            <mxPoint x="349" y="210" as="targetPoint" />
            <Array as="points">
              <mxPoint x="339" y="260" />
              <mxPoint x="329" y="250" />
              <mxPoint x="329" y="220" />
              <mxPoint x="339" y="210" />
            </Array>
          </mxGeometry>
        </mxCell>
        <mxCell id="JhGm3Lid9YmZxuNOlKfP-23" value="" style="endArrow=none;html=1;rounded=0;exitX=1;exitY=0.5;exitDx=0;exitDy=0;strokeWidth=8;" edge="1" parent="1" source="JhGm3Lid9YmZxuNOlKfP-21">
          <mxGeometry width="50" height="50" relative="1" as="geometry">
            <mxPoint x="429" y="290" as="sourcePoint" />
            <mxPoint x="409" y="210" as="targetPoint" />
            <Array as="points">
              <mxPoint x="419" y="260" />
              <mxPoint x="429" y="250" />
              <mxPoint x="429" y="220" />
              <mxPoint x="419" y="210" />
            </Array>
          </mxGeometry>
        </mxCell>
        <mxCell id="JhGm3Lid9YmZxuNOlKfP-25" value="&lt;b&gt;&lt;font style=&quot;font-size: 18px;&quot;&gt;.&lt;/font&gt;&lt;/b&gt;" style="rounded=0;whiteSpace=wrap;html=1;fillColor=#d5e8d4;strokeColor=#82b366;" vertex="1" parent="1">
          <mxGeometry x="489" y="270" width="40" height="40" as="geometry" />
        </mxCell>
        <mxCell id="JhGm3Lid9YmZxuNOlKfP-29" value="" style="endArrow=none;html=1;rounded=0;strokeWidth=8;exitX=0;exitY=0.5;exitDx=0;exitDy=0;" edge="1" parent="1" source="JhGm3Lid9YmZxuNOlKfP-25">
          <mxGeometry width="50" height="50" relative="1" as="geometry">
            <mxPoint x="459" y="350" as="sourcePoint" />
            <mxPoint x="459" y="210" as="targetPoint" />
            <Array as="points">
              <mxPoint x="479" y="290" />
              <mxPoint x="469" y="280" />
              <mxPoint x="469" y="220" />
            </Array>
          </mxGeometry>
        </mxCell>
        <mxCell id="JhGm3Lid9YmZxuNOlKfP-30" value="" style="endArrow=none;html=1;rounded=0;strokeWidth=8;" edge="1" parent="1">
          <mxGeometry width="50" height="50" relative="1" as="geometry">
            <mxPoint x="299" y="210" as="sourcePoint" />
            <mxPoint x="279" y="350" as="targetPoint" />
            <Array as="points">
              <mxPoint x="289" y="220" />
              <mxPoint x="289" y="340" />
            </Array>
          </mxGeometry>
        </mxCell>
        <mxCell id="JhGm3Lid9YmZxuNOlKfP-31" value="" style="endArrow=none;html=1;rounded=0;strokeWidth=8;entryX=1;entryY=0.5;entryDx=0;entryDy=0;exitX=0;exitY=0.5;exitDx=0;exitDy=0;" edge="1" parent="1" source="JhGm3Lid9YmZxuNOlKfP-32" target="JhGm3Lid9YmZxuNOlKfP-19">
          <mxGeometry width="50" height="50" relative="1" as="geometry">
            <mxPoint x="319" y="350" as="sourcePoint" />
            <mxPoint x="309" y="370" as="targetPoint" />
          </mxGeometry>
        </mxCell>
        <mxCell id="JhGm3Lid9YmZxuNOlKfP-32" value="&lt;span style=&quot;font-size: 18px;&quot;&gt;&lt;b&gt;x&lt;/b&gt;&lt;/span&gt;" style="rounded=0;whiteSpace=wrap;html=1;fillColor=#d5e8d4;strokeColor=#82b366;" vertex="1" parent="1">
          <mxGeometry x="359" y="330" width="40" height="40" as="geometry" />
        </mxCell>
        <mxCell id="JhGm3Lid9YmZxuNOlKfP-33" value="&lt;span style=&quot;font-size: 18px;&quot;&gt;&lt;b&gt;X&lt;/b&gt;&lt;/span&gt;" style="rounded=0;whiteSpace=wrap;html=1;fillColor=#d5e8d4;strokeColor=#82b366;" vertex="1" parent="1">
          <mxGeometry x="359" y="380" width="40" height="40" as="geometry" />
        </mxCell>
        <mxCell id="JhGm3Lid9YmZxuNOlKfP-34" value="&lt;span style=&quot;font-size: 18px;&quot;&gt;&lt;b&gt;b&lt;/b&gt;&lt;/span&gt;" style="rounded=0;whiteSpace=wrap;html=1;fillColor=#d5e8d4;strokeColor=#82b366;" vertex="1" parent="1">
          <mxGeometry x="359" y="510" width="40" height="40" as="geometry" />
        </mxCell>
        <mxCell id="JhGm3Lid9YmZxuNOlKfP-35" value="&lt;span style=&quot;font-size: 18px;&quot;&gt;&lt;b&gt;B&lt;/b&gt;&lt;/span&gt;" style="rounded=0;whiteSpace=wrap;html=1;fillColor=#d5e8d4;strokeColor=#82b366;" vertex="1" parent="1">
          <mxGeometry x="359" y="560" width="40" height="40" as="geometry" />
        </mxCell>
        <mxCell id="JhGm3Lid9YmZxuNOlKfP-36" value="" style="endArrow=none;html=1;rounded=0;exitX=0;exitY=0.5;exitDx=0;exitDy=0;strokeWidth=8;" edge="1" parent="1" source="JhGm3Lid9YmZxuNOlKfP-35">
          <mxGeometry width="50" height="50" relative="1" as="geometry">
            <mxPoint x="279" y="430" as="sourcePoint" />
            <mxPoint x="319" y="350" as="targetPoint" />
            <Array as="points">
              <mxPoint x="339" y="580" />
              <mxPoint x="329" y="570" />
              <mxPoint x="329" y="360" />
            </Array>
          </mxGeometry>
        </mxCell>
        <mxCell id="JhGm3Lid9YmZxuNOlKfP-37" value="" style="endArrow=none;html=1;rounded=0;strokeWidth=8;exitX=0;exitY=0.5;exitDx=0;exitDy=0;" edge="1" parent="1" source="JhGm3Lid9YmZxuNOlKfP-33">
          <mxGeometry width="50" height="50" relative="1" as="geometry">
            <mxPoint x="349" y="400" as="sourcePoint" />
            <mxPoint x="329" y="390" as="targetPoint" />
            <Array as="points">
              <mxPoint x="339" y="400" />
            </Array>
          </mxGeometry>
        </mxCell>
        <mxCell id="JhGm3Lid9YmZxuNOlKfP-38" value="" style="endArrow=none;html=1;rounded=0;strokeWidth=8;exitX=0;exitY=0.5;exitDx=0;exitDy=0;" edge="1" parent="1" source="JhGm3Lid9YmZxuNOlKfP-34">
          <mxGeometry width="50" height="50" relative="1" as="geometry">
            <mxPoint x="299" y="430" as="sourcePoint" />
            <mxPoint x="329" y="520" as="targetPoint" />
            <Array as="points">
              <mxPoint x="339" y="530" />
            </Array>
          </mxGeometry>
        </mxCell>
        <mxCell id="JhGm3Lid9YmZxuNOlKfP-39" value="&lt;b&gt;&lt;font style=&quot;font-size: 18px;&quot;&gt;0 ~ 9&lt;/font&gt;&lt;/b&gt;" style="rounded=0;whiteSpace=wrap;html=1;fillColor=#d5e8d4;strokeColor=#82b366;" vertex="1" parent="1">
          <mxGeometry x="519" y="330" width="60" height="40" as="geometry" />
        </mxCell>
        <mxCell id="JhGm3Lid9YmZxuNOlKfP-40" value="&lt;span style=&quot;font-size: 18px;&quot;&gt;&lt;b&gt;A ~ F&lt;/b&gt;&lt;/span&gt;" style="rounded=0;whiteSpace=wrap;html=1;fillColor=#d5e8d4;strokeColor=#82b366;" vertex="1" parent="1">
          <mxGeometry x="519" y="380" width="60" height="40" as="geometry" />
        </mxCell>
        <mxCell id="JhGm3Lid9YmZxuNOlKfP-41" value="&lt;b&gt;&lt;font style=&quot;font-size: 18px;&quot;&gt;a ~ f&lt;/font&gt;&lt;/b&gt;" style="rounded=0;whiteSpace=wrap;html=1;fillColor=#d5e8d4;strokeColor=#82b366;" vertex="1" parent="1">
          <mxGeometry x="519" y="430" width="60" height="40" as="geometry" />
        </mxCell>
        <mxCell id="JhGm3Lid9YmZxuNOlKfP-42" value="" style="endArrow=none;html=1;rounded=0;strokeWidth=8;entryX=1;entryY=0.5;entryDx=0;entryDy=0;exitX=0;exitY=0.5;exitDx=0;exitDy=0;" edge="1" parent="1" source="JhGm3Lid9YmZxuNOlKfP-39" target="JhGm3Lid9YmZxuNOlKfP-32">
          <mxGeometry width="50" height="50" relative="1" as="geometry">
            <mxPoint x="664" y="370" as="sourcePoint" />
            <mxPoint x="584" y="370" as="targetPoint" />
          </mxGeometry>
        </mxCell>
        <mxCell id="JhGm3Lid9YmZxuNOlKfP-43" value="" style="endArrow=none;html=1;rounded=0;exitX=0;exitY=0.5;exitDx=0;exitDy=0;strokeWidth=8;" edge="1" parent="1" source="JhGm3Lid9YmZxuNOlKfP-41">
          <mxGeometry width="50" height="50" relative="1" as="geometry">
            <mxPoint x="489" y="450" as="sourcePoint" />
            <mxPoint x="489" y="350" as="targetPoint" />
            <Array as="points">
              <mxPoint x="509" y="450" />
              <mxPoint x="499" y="440" />
              <mxPoint x="499" y="360" />
            </Array>
          </mxGeometry>
        </mxCell>
        <mxCell id="JhGm3Lid9YmZxuNOlKfP-45" value="" style="endArrow=none;html=1;rounded=0;exitX=0;exitY=0.5;exitDx=0;exitDy=0;strokeWidth=8;" edge="1" parent="1" source="JhGm3Lid9YmZxuNOlKfP-40">
          <mxGeometry width="50" height="50" relative="1" as="geometry">
            <mxPoint x="549" y="400" as="sourcePoint" />
            <mxPoint x="499" y="390" as="targetPoint" />
            <Array as="points">
              <mxPoint x="509" y="400" />
            </Array>
          </mxGeometry>
        </mxCell>
        <mxCell id="JhGm3Lid9YmZxuNOlKfP-46" value="" style="endArrow=none;html=1;rounded=0;entryX=1;entryY=0.5;entryDx=0;entryDy=0;strokeWidth=8;" edge="1" parent="1" target="JhGm3Lid9YmZxuNOlKfP-39">
          <mxGeometry width="50" height="50" relative="1" as="geometry">
            <mxPoint x="1089" y="340" as="sourcePoint" />
            <mxPoint x="579" y="390" as="targetPoint" />
            <Array as="points">
              <mxPoint x="1079" y="350" />
            </Array>
          </mxGeometry>
        </mxCell>
        <mxCell id="JhGm3Lid9YmZxuNOlKfP-47" value="" style="endArrow=none;html=1;rounded=0;strokeWidth=8;" edge="1" parent="1">
          <mxGeometry width="50" height="50" relative="1" as="geometry">
            <mxPoint x="479" y="350" as="sourcePoint" />
            <mxPoint x="589" y="350" as="targetPoint" />
            <Array as="points">
              <mxPoint x="469" y="360" />
              <mxPoint x="469" y="480" />
              <mxPoint x="479" y="490" />
              <mxPoint x="589" y="490" />
              <mxPoint x="599" y="480" />
              <mxPoint x="599" y="360" />
            </Array>
          </mxGeometry>
        </mxCell>
        <mxCell id="JhGm3Lid9YmZxuNOlKfP-49" value="" style="endArrow=none;html=1;rounded=0;entryX=1;entryY=0.5;entryDx=0;entryDy=0;strokeWidth=8;" edge="1" parent="1" target="JhGm3Lid9YmZxuNOlKfP-40">
          <mxGeometry width="50" height="50" relative="1" as="geometry">
            <mxPoint x="599" y="410" as="sourcePoint" />
            <mxPoint x="639" y="390" as="targetPoint" />
            <Array as="points">
              <mxPoint x="589" y="400" />
            </Array>
          </mxGeometry>
        </mxCell>
        <mxCell id="JhGm3Lid9YmZxuNOlKfP-50" value="" style="endArrow=none;html=1;rounded=0;entryX=1;entryY=0.5;entryDx=0;entryDy=0;strokeWidth=8;" edge="1" parent="1" target="JhGm3Lid9YmZxuNOlKfP-41">
          <mxGeometry width="50" height="50" relative="1" as="geometry">
            <mxPoint x="599" y="460" as="sourcePoint" />
            <mxPoint x="639" y="390" as="targetPoint" />
            <Array as="points">
              <mxPoint x="589" y="450" />
            </Array>
          </mxGeometry>
        </mxCell>
        <mxCell id="JhGm3Lid9YmZxuNOlKfP-51" value="&lt;b&gt;&lt;font style=&quot;font-size: 18px;&quot;&gt;0&lt;/font&gt;&lt;/b&gt;" style="rounded=0;whiteSpace=wrap;html=1;fillColor=#d5e8d4;strokeColor=#82b366;" vertex="1" parent="1">
          <mxGeometry x="529" y="510" width="40" height="40" as="geometry" />
        </mxCell>
        <mxCell id="JhGm3Lid9YmZxuNOlKfP-52" value="&lt;b&gt;&lt;font style=&quot;font-size: 18px;&quot;&gt;1&lt;/font&gt;&lt;/b&gt;" style="rounded=0;whiteSpace=wrap;html=1;fillColor=#d5e8d4;strokeColor=#82b366;" vertex="1" parent="1">
          <mxGeometry x="529" y="560" width="40" height="40" as="geometry" />
        </mxCell>
        <mxCell id="JhGm3Lid9YmZxuNOlKfP-53" value="" style="endArrow=none;html=1;rounded=0;strokeWidth=8;entryX=1;entryY=0.5;entryDx=0;entryDy=0;exitX=0;exitY=0.5;exitDx=0;exitDy=0;" edge="1" parent="1" source="JhGm3Lid9YmZxuNOlKfP-51" target="JhGm3Lid9YmZxuNOlKfP-34">
          <mxGeometry width="50" height="50" relative="1" as="geometry">
            <mxPoint x="499" y="360" as="sourcePoint" />
            <mxPoint x="399" y="360" as="targetPoint" />
          </mxGeometry>
        </mxCell>
        <mxCell id="JhGm3Lid9YmZxuNOlKfP-54" value="" style="endArrow=none;html=1;rounded=0;exitX=0;exitY=0.5;exitDx=0;exitDy=0;strokeWidth=8;" edge="1" parent="1" source="JhGm3Lid9YmZxuNOlKfP-52">
          <mxGeometry width="50" height="50" relative="1" as="geometry">
            <mxPoint x="499" y="690" as="sourcePoint" />
            <mxPoint x="499" y="530" as="targetPoint" />
            <Array as="points">
              <mxPoint x="519" y="580" />
              <mxPoint x="509" y="570" />
              <mxPoint x="509" y="540" />
            </Array>
          </mxGeometry>
        </mxCell>
        <mxCell id="JhGm3Lid9YmZxuNOlKfP-55" value="" style="endArrow=none;html=1;rounded=0;strokeWidth=8;" edge="1" parent="1">
          <mxGeometry width="50" height="50" relative="1" as="geometry">
            <mxPoint x="479" y="530" as="sourcePoint" />
            <mxPoint x="589" y="530" as="targetPoint" />
            <Array as="points">
              <mxPoint x="469" y="540" />
              <mxPoint x="469" y="610" />
              <mxPoint x="479" y="620" />
              <mxPoint x="589" y="620" />
              <mxPoint x="599" y="610" />
              <mxPoint x="599" y="540" />
            </Array>
          </mxGeometry>
        </mxCell>
        <mxCell id="JhGm3Lid9YmZxuNOlKfP-56" value="" style="endArrow=none;html=1;rounded=0;entryX=1;entryY=0.5;entryDx=0;entryDy=0;strokeWidth=8;" edge="1" parent="1" target="JhGm3Lid9YmZxuNOlKfP-51">
          <mxGeometry width="50" height="50" relative="1" as="geometry">
            <mxPoint x="1099" y="210" as="sourcePoint" />
            <mxPoint x="549" y="529.76" as="targetPoint" />
            <Array as="points">
              <mxPoint x="1089" y="220" />
              <mxPoint x="1089" y="520" />
              <mxPoint x="1079" y="530" />
            </Array>
          </mxGeometry>
        </mxCell>
        <mxCell id="JhGm3Lid9YmZxuNOlKfP-58" value="" style="endArrow=none;html=1;rounded=0;entryX=1;entryY=0.5;entryDx=0;entryDy=0;strokeWidth=8;" edge="1" parent="1" target="JhGm3Lid9YmZxuNOlKfP-33">
          <mxGeometry width="50" height="50" relative="1" as="geometry">
            <mxPoint x="439" y="350" as="sourcePoint" />
            <mxPoint x="489" y="450" as="targetPoint" />
            <Array as="points">
              <mxPoint x="429" y="360" />
              <mxPoint x="429" y="390" />
              <mxPoint x="419" y="400" />
              <mxPoint x="399" y="400" />
            </Array>
          </mxGeometry>
        </mxCell>
        <mxCell id="JhGm3Lid9YmZxuNOlKfP-59" value="" style="endArrow=none;html=1;rounded=0;entryX=1;entryY=0.5;entryDx=0;entryDy=0;strokeWidth=8;" edge="1" parent="1" target="JhGm3Lid9YmZxuNOlKfP-35">
          <mxGeometry width="50" height="50" relative="1" as="geometry">
            <mxPoint x="439" y="530" as="sourcePoint" />
            <mxPoint x="389" y="580" as="targetPoint" />
            <Array as="points">
              <mxPoint x="429" y="540" />
              <mxPoint x="429" y="570" />
              <mxPoint x="419" y="580" />
              <mxPoint x="399" y="580" />
            </Array>
          </mxGeometry>
        </mxCell>
        <mxCell id="JhGm3Lid9YmZxuNOlKfP-60" value="&lt;b&gt;&lt;font style=&quot;font-size: 18px;&quot;&gt;0 ~ 9&lt;/font&gt;&lt;/b&gt;" style="rounded=0;whiteSpace=wrap;html=1;fillColor=#d5e8d4;strokeColor=#82b366;" vertex="1" parent="1">
          <mxGeometry x="589" y="270" width="60" height="40" as="geometry" />
        </mxCell>
        <mxCell id="JhGm3Lid9YmZxuNOlKfP-61" value="" style="endArrow=none;html=1;rounded=0;entryX=1;entryY=0.5;entryDx=0;entryDy=0;strokeWidth=8;exitX=0;exitY=0.5;exitDx=0;exitDy=0;" edge="1" parent="1" source="JhGm3Lid9YmZxuNOlKfP-60" target="JhGm3Lid9YmZxuNOlKfP-25">
          <mxGeometry width="50" height="50" relative="1" as="geometry">
            <mxPoint x="689" y="360" as="sourcePoint" />
            <mxPoint x="559" y="360" as="targetPoint" />
          </mxGeometry>
        </mxCell>
        <mxCell id="JhGm3Lid9YmZxuNOlKfP-62" value="" style="endArrow=none;html=1;rounded=0;entryX=1;entryY=0.5;entryDx=0;entryDy=0;strokeWidth=8;exitX=0;exitY=0.5;exitDx=0;exitDy=0;" edge="1" parent="1" source="JhGm3Lid9YmZxuNOlKfP-64" target="JhGm3Lid9YmZxuNOlKfP-60">
          <mxGeometry width="50" height="50" relative="1" as="geometry">
            <mxPoint x="709" y="290" as="sourcePoint" />
            <mxPoint x="739" y="310" as="targetPoint" />
          </mxGeometry>
        </mxCell>
        <mxCell id="JhGm3Lid9YmZxuNOlKfP-63" value="" style="endArrow=none;html=1;rounded=0;strokeWidth=8;" edge="1" parent="1">
          <mxGeometry width="50" height="50" relative="1" as="geometry">
            <mxPoint x="659" y="290" as="sourcePoint" />
            <mxPoint x="579" y="290" as="targetPoint" />
            <Array as="points">
              <mxPoint x="669" y="280" />
              <mxPoint x="669" y="250" />
              <mxPoint x="659" y="240" />
              <mxPoint x="579" y="240" />
              <mxPoint x="569" y="250" />
              <mxPoint x="569" y="280" />
            </Array>
          </mxGeometry>
        </mxCell>
        <mxCell id="JhGm3Lid9YmZxuNOlKfP-64" value="&lt;b&gt;&lt;font style=&quot;font-size: 18px;&quot;&gt;e&lt;/font&gt;&lt;/b&gt;" style="rounded=0;whiteSpace=wrap;html=1;fillColor=#d5e8d4;strokeColor=#82b366;" vertex="1" parent="1">
          <mxGeometry x="729" y="270" width="40" height="40" as="geometry" />
        </mxCell>
        <mxCell id="JhGm3Lid9YmZxuNOlKfP-65" value="&lt;b&gt;&lt;font style=&quot;font-size: 18px;&quot;&gt;E&lt;/font&gt;&lt;/b&gt;" style="rounded=0;whiteSpace=wrap;html=1;fillColor=#d5e8d4;strokeColor=#82b366;" vertex="1" parent="1">
          <mxGeometry x="729" y="220" width="40" height="40" as="geometry" />
        </mxCell>
        <mxCell id="JhGm3Lid9YmZxuNOlKfP-66" value="" style="endArrow=none;html=1;rounded=0;strokeWidth=8;" edge="1" parent="1">
          <mxGeometry width="50" height="50" relative="1" as="geometry">
            <mxPoint x="729" y="210" as="sourcePoint" />
            <mxPoint x="699" y="290" as="targetPoint" />
            <Array as="points">
              <mxPoint x="719" y="210" />
              <mxPoint x="709" y="220" />
              <mxPoint x="709" y="280" />
            </Array>
          </mxGeometry>
        </mxCell>
        <mxCell id="JhGm3Lid9YmZxuNOlKfP-68" value="" style="endArrow=none;html=1;rounded=0;entryX=0;entryY=0.5;entryDx=0;entryDy=0;strokeWidth=8;" edge="1" parent="1" target="JhGm3Lid9YmZxuNOlKfP-65">
          <mxGeometry width="50" height="50" relative="1" as="geometry">
            <mxPoint x="709" y="250" as="sourcePoint" />
            <mxPoint x="799" y="240" as="targetPoint" />
            <Array as="points">
              <mxPoint x="719" y="240" />
            </Array>
          </mxGeometry>
        </mxCell>
        <mxCell id="JhGm3Lid9YmZxuNOlKfP-69" value="&lt;b&gt;&lt;font style=&quot;font-size: 18px;&quot;&gt;+&lt;/font&gt;&lt;/b&gt;" style="rounded=0;whiteSpace=wrap;html=1;fillColor=#d5e8d4;strokeColor=#82b366;" vertex="1" parent="1">
          <mxGeometry x="849" y="240" width="40" height="40" as="geometry" />
        </mxCell>
        <mxCell id="JhGm3Lid9YmZxuNOlKfP-70" value="&lt;b&gt;&lt;font style=&quot;font-size: 18px;&quot;&gt;-&lt;/font&gt;&lt;/b&gt;" style="rounded=0;whiteSpace=wrap;html=1;fillColor=#d5e8d4;strokeColor=#82b366;" vertex="1" parent="1">
          <mxGeometry x="849" y="300" width="40" height="40" as="geometry" />
        </mxCell>
        <mxCell id="JhGm3Lid9YmZxuNOlKfP-74" value="&lt;b&gt;&lt;font style=&quot;font-size: 18px;&quot;&gt;0 ~ 9&lt;/font&gt;&lt;/b&gt;" style="rounded=0;whiteSpace=wrap;html=1;fillColor=#d5e8d4;strokeColor=#82b366;" vertex="1" parent="1">
          <mxGeometry x="969" y="270" width="60" height="40" as="geometry" />
        </mxCell>
        <mxCell id="JhGm3Lid9YmZxuNOlKfP-75" value="" style="endArrow=none;html=1;rounded=0;strokeWidth=8;" edge="1" parent="1">
          <mxGeometry width="50" height="50" relative="1" as="geometry">
            <mxPoint x="1039" y="290" as="sourcePoint" />
            <mxPoint x="959" y="290" as="targetPoint" />
            <Array as="points">
              <mxPoint x="1049" y="280" />
              <mxPoint x="1049" y="250" />
              <mxPoint x="1039" y="240" />
              <mxPoint x="959" y="240" />
              <mxPoint x="949" y="250" />
              <mxPoint x="949" y="280" />
            </Array>
          </mxGeometry>
        </mxCell>
        <mxCell id="JhGm3Lid9YmZxuNOlKfP-78" value="" style="endArrow=none;html=1;rounded=0;entryX=1;entryY=0.5;entryDx=0;entryDy=0;strokeWidth=8;" edge="1" parent="1" target="JhGm3Lid9YmZxuNOlKfP-65">
          <mxGeometry width="50" height="50" relative="1" as="geometry">
            <mxPoint x="799" y="290" as="sourcePoint" />
            <mxPoint x="769" y="240" as="targetPoint" />
            <Array as="points">
              <mxPoint x="789" y="280" />
              <mxPoint x="789" y="250" />
              <mxPoint x="779" y="240" />
            </Array>
          </mxGeometry>
        </mxCell>
        <mxCell id="JhGm3Lid9YmZxuNOlKfP-91" value="" style="endArrow=none;html=1;rounded=0;strokeWidth=8;exitX=1;exitY=0.5;exitDx=0;exitDy=0;" edge="1" parent="1" source="JhGm3Lid9YmZxuNOlKfP-74">
          <mxGeometry width="50" height="50" relative="1" as="geometry">
            <mxPoint x="979" y="300" as="sourcePoint" />
            <mxPoint x="1089" y="280" as="targetPoint" />
            <Array as="points">
              <mxPoint x="1079" y="290" />
            </Array>
          </mxGeometry>
        </mxCell>
        <mxCell id="JhGm3Lid9YmZxuNOlKfP-92" value="" style="endArrow=none;html=1;rounded=0;strokeWidth=8;" edge="1" parent="1">
          <mxGeometry width="50" height="50" relative="1" as="geometry">
            <mxPoint x="700" y="290" as="sourcePoint" />
            <mxPoint x="680" y="210" as="targetPoint" />
            <Array as="points">
              <mxPoint x="690" y="280" />
              <mxPoint x="690" y="220" />
            </Array>
          </mxGeometry>
        </mxCell>
        <mxCell id="JhGm3Lid9YmZxuNOlKfP-93" value="" style="endArrow=none;html=1;rounded=0;entryX=0;entryY=0.5;entryDx=0;entryDy=0;exitX=1;exitY=0.5;exitDx=0;exitDy=0;strokeWidth=8;" edge="1" parent="1" source="JhGm3Lid9YmZxuNOlKfP-64" target="JhGm3Lid9YmZxuNOlKfP-74">
          <mxGeometry width="50" height="50" relative="1" as="geometry">
            <mxPoint x="850" y="380" as="sourcePoint" />
            <mxPoint x="900" y="330" as="targetPoint" />
          </mxGeometry>
        </mxCell>
        <mxCell id="JhGm3Lid9YmZxuNOlKfP-95" value="" style="endArrow=none;html=1;rounded=0;entryX=0;entryY=0.5;entryDx=0;entryDy=0;strokeWidth=8;" edge="1" parent="1" target="JhGm3Lid9YmZxuNOlKfP-69">
          <mxGeometry width="50" height="50" relative="1" as="geometry">
            <mxPoint x="820" y="290" as="sourcePoint" />
            <mxPoint x="910" y="290" as="targetPoint" />
            <Array as="points">
              <mxPoint x="830" y="280" />
              <mxPoint x="830" y="270" />
              <mxPoint x="840" y="260" />
            </Array>
          </mxGeometry>
        </mxCell>
        <mxCell id="JhGm3Lid9YmZxuNOlKfP-96" value="" style="endArrow=none;html=1;rounded=0;exitX=0;exitY=0.5;exitDx=0;exitDy=0;strokeWidth=8;" edge="1" parent="1" source="JhGm3Lid9YmZxuNOlKfP-70">
          <mxGeometry width="50" height="50" relative="1" as="geometry">
            <mxPoint x="860" y="330" as="sourcePoint" />
            <mxPoint x="820" y="290" as="targetPoint" />
            <Array as="points">
              <mxPoint x="840" y="320" />
              <mxPoint x="830" y="310" />
              <mxPoint x="830" y="300" />
            </Array>
          </mxGeometry>
        </mxCell>
        <mxCell id="JhGm3Lid9YmZxuNOlKfP-97" value="" style="endArrow=none;html=1;rounded=0;exitX=1;exitY=0.5;exitDx=0;exitDy=0;strokeWidth=8;" edge="1" parent="1" source="JhGm3Lid9YmZxuNOlKfP-70">
          <mxGeometry width="50" height="50" relative="1" as="geometry">
            <mxPoint x="890" y="340" as="sourcePoint" />
            <mxPoint x="920" y="290" as="targetPoint" />
            <Array as="points">
              <mxPoint x="900" y="320" />
              <mxPoint x="910" y="310" />
              <mxPoint x="910" y="300" />
            </Array>
          </mxGeometry>
        </mxCell>
        <mxCell id="JhGm3Lid9YmZxuNOlKfP-98" value="" style="endArrow=none;html=1;rounded=0;entryX=1;entryY=0.5;entryDx=0;entryDy=0;strokeWidth=8;" edge="1" parent="1" target="JhGm3Lid9YmZxuNOlKfP-69">
          <mxGeometry width="50" height="50" relative="1" as="geometry">
            <mxPoint x="920" y="290" as="sourcePoint" />
            <mxPoint x="940" y="270" as="targetPoint" />
            <Array as="points">
              <mxPoint x="910" y="280" />
              <mxPoint x="910" y="270" />
              <mxPoint x="900" y="260" />
            </Array>
          </mxGeometry>
        </mxCell>
      </root>
    </mxGraphModel>
  </diagram>
</mxfile>
